<?xml version="1.0" encoding="UTF-8"?>
<svg xmlns="http://www.w3.org/2000/svg" xmlns:xlink="http://www.w3.org/1999/xlink" width="3100px" height="3100px" viewBox="0 0 3100 3100" version="1.1">
<g id="surface1">
<path style=" stroke:none;fill-rule:nonzero;fill:rgb(0%,0%,0%);fill-opacity:1;" d="M 576.660156 1459.28125 C 507.394531 1484.128906 434.5 1497.113281 360.921875 1497.742188 C 264.484375 1503.214844 169.890625 1469.839844 98.25 1405.03125 C 31.800781 1334.457031 -3.464844 1240.15625 0.265625 1143.277344 C 1.285156 933.792969 145.136719 780.492188 380.589844 780.492188 C 440.601562 779.085938 500.222656 790.128906 555.734375 812.898438 L 533.886719 886.910156 C 484.917969 865.644531 431.882812 855.328125 378.503906 856.734375 C 233.875 845.398438 107.40625 953.503906 96.070312 1098.140625 C 95.003906 1111.800781 95.003906 1125.460938 96.070312 1139.121094 C 96.070312 1317.269531 203.5 1422.570312 367.074219 1422.570312 C 408.296875 1424.847656 449.5625 1418.453125 488.164062 1403.875 L 488.164062 1194.386719 L 345.234375 1194.386719 L 345.234375 1121.292969 L 576.664062 1121.292969 L 576.664062 1459.28125 Z M 576.660156 1459.28125 "/>
<path style=" stroke:none;fill-rule:nonzero;fill:rgb(88.627451%,10.588235%,10.588235%);fill-opacity:1;" d="M 1174.121094 1233.90625 C 1174.121094 1420.53125 1044.847656 1501.761719 922.878906 1501.761719 C 786.339844 1501.761719 681.132812 1401.792969 681.132812 1242.1875 C 681.132812 1073.4375 791.515625 974.332031 931.164062 974.332031 C 1076.234375 974.332031 1174.121094 1079.6875 1174.121094 1233.90625 Z M 773.890625 1239.089844 C 773.890625 1349.617188 837.492188 1432.835938 927.046875 1432.835938 C 1014.71875 1432.835938 1080.347656 1350.492188 1080.347656 1236.859375 C 1080.347656 1151.417969 1037.574219 1043.117188 929.082031 1043.117188 C 820.585938 1043.117188 773.890625 1143.277344 773.890625 1239.089844 Z M 773.890625 1239.089844 "/>
<path style=" stroke:none;fill-rule:nonzero;fill:rgb(40%,40%,40%);fill-opacity:1;" d="M 1746.738281 1233.90625 C 1746.738281 1420.53125 1617.460938 1501.761719 1495.496094 1501.761719 C 1358.953125 1501.761719 1253.746094 1401.792969 1253.746094 1242.1875 C 1253.746094 1073.4375 1364.132812 974.332031 1503.777344 974.332031 C 1648.800781 974.332031 1746.738281 1079.6875 1746.738281 1233.90625 Z M 1346.507812 1239.089844 C 1346.507812 1349.617188 1410.105469 1432.835938 1499.660156 1432.835938 C 1587.332031 1432.835938 1652.960938 1350.492188 1652.960938 1236.859375 C 1652.960938 1151.417969 1610.191406 1043.117188 1501.695312 1043.117188 C 1393.199219 1043.117188 1346.457031 1143.277344 1346.507812 1239.089844 Z M 1346.507812 1239.089844 "/>
<path style=" stroke:none;fill-rule:nonzero;fill:rgb(0%,0%,0%);fill-opacity:1;" d="M 2297.3125 985.765625 C 2295.230469 1022.335938 2293.144531 1063.265625 2293.144531 1124.535156 L 2293.144531 1417.378906 C 2293.144531 1533.089844 2270.136719 1604.003906 2221.214844 1647.644531 C 2169.726562 1689.980469 2104.292969 1711.535156 2037.738281 1708.09375 C 1979.03125 1709.546875 1921.058594 1695.210938 1869.859375 1666.488281 L 1892.867188 1596.640625 C 1937.671875 1623.085938 1988.824219 1636.746094 2040.839844 1636.164062 C 2134.566406 1636.164062 2203.390625 1587.144531 2203.390625 1460.097656 L 2203.390625 1403.863281 L 2201.308594 1403.863281 C 2166.917969 1458.839844 2105.648438 1491.097656 2040.886719 1488.339844 C 1915.777344 1488.339844 1826.21875 1381.78125 1826.21875 1242.28125 C 1826.21875 1071.445312 1937.617188 974.425781 2053.382812 974.425781 C 2118.386719 970.597656 2179.753906 1004.796875 2210.703125 1062.097656 L 2212.789062 1062.097656 L 2216.953125 985.855469 Z M 2202.378906 1184.839844 C 2202.914062 1170.792969 2201.167969 1156.746094 2197.195312 1143.230469 C 2181.261719 1085.6875 2128.707031 1045.972656 2068.988281 1046.359375 C 1981.460938 1046.359375 1918.835938 1120.375 1918.835938 1237.101562 C 1918.835938 1336.203125 1968.921875 1418.496094 2067.875 1418.496094 C 2126.144531 1418.15625 2177.53125 1380.328125 2195.066406 1324.769531 C 2200.007812 1308.882812 2202.476562 1292.363281 2202.332031 1275.75 Z M 2202.378906 1184.839844 "/>
<path style=" stroke:none;fill-rule:nonzero;fill:rgb(0%,0%,0%);fill-opacity:1;" d="M 2445.578125 750.265625 L 2537.613281 750.265625 L 2537.613281 1490.324219 L 2445.578125 1490.324219 Z M 2445.578125 750.265625 "/>
<path style=" stroke:none;fill-rule:nonzero;fill:rgb(88.627451%,10.588235%,10.588235%);fill-opacity:1;" d="M 2742.734375 1254.6875 C 2735.03125 1343.617188 2800.859375 1421.984375 2889.835938 1429.6875 C 2898.40625 1430.414062 2907.078125 1430.511719 2915.652344 1429.832031 C 2963.554688 1431.332031 3011.269531 1422.46875 3055.4375 1403.820312 L 3071.035156 1469.503906 C 3017.898438 1491.589844 2960.699219 1502.199219 2903.15625 1500.695312 C 2747.917969 1500.695312 2655.207031 1398.644531 2655.207031 1246.355469 C 2655.207031 1094.066406 2744.816406 974.332031 2891.722656 974.332031 C 3056.40625 974.332031 3100 1119.207031 3100 1212.0625 C 3099.855469 1226.300781 3098.789062 1240.542969 3096.898438 1254.6875 Z M 3011.65625 1189.003906 C 3012.671875 1130.878906 2987.726562 1039.96875 2884.464844 1039.96875 C 2791.753906 1039.96875 2751.070312 1125.558594 2744 1189.003906 Z M 3011.65625 1189.003906 "/>
<path style=" stroke:none;fill-rule:nonzero;fill:rgb(60%,60%,60%);fill-opacity:1;" d="M 3.707031 1986.945312 L 3096.753906 1986.945312 L 3096.753906 2059.601562 L 3.707031 2059.601562 Z M 3.707031 1986.945312 "/>
<path style=" stroke:none;fill-rule:nonzero;fill:rgb(60%,60%,60%);fill-opacity:1;" d="M 566.4375 2277.078125 L 2533.972656 2277.078125 L 2533.972656 2349.734375 L 566.4375 2349.734375 Z M 566.4375 2277.078125 "/>
</g>
</svg>
